<?xml version="1.0" standalone="no"?><!DOCTYPE svg PUBLIC "-//W3C//DTD SVG 1.1//EN" "http://www.w3.org/Graphics/SVG/1.1/DTD/svg11.dtd"><svg t="1521253927730" class="icon" style="" viewBox="0 0 1024 1024" version="1.1" xmlns="http://www.w3.org/2000/svg" p-id="1622" xmlns:xlink="http://www.w3.org/1999/xlink" width="40" height="30"><defs><style type="text/css"></style></defs><path d="M889.6 537.6c25.6 0 44.8-25.6 44.8-64s-19.2-64-44.8-64H83.2c-25.6 0-44.8 25.6-44.8 64s19.2 64 44.8 64h806.4z m0-384c25.6 0 44.8-25.6 44.8-64s-19.2-64-44.8-64H83.2C57.6 25.6 38.4 51.2 38.4 89.6s19.2 64 44.8 64h806.4z m0 640H83.2c-25.6 0-44.8 25.6-44.8 64s19.2 64 44.8 64h806.4c25.6 0 44.8-25.6 44.8-64 0-32-19.2-64-44.8-64" p-id="1623" fill="#8a8a8a"></path></svg>
